<svg width="376" height="156" viewBox="0 0 376 156" xmlns="http://www.w3.org/2000/svg" xmlns:xlink="http://www.w3.org/1999/xlink"><title>Page 1</title><defs><path id="a" d="M0 156V.7h152.32V156z"/><path id="c" d="M0 156.3h376.02V1H0z"/></defs><g transform="translate(0 -1)" fill="none" fill-rule="evenodd"><path d="M45.9 13.8h.78c8.6.17 15.9 3.25 21.72 9.73 2.88 3.2 6.02 6.18 9.08 9.2 2.56 2.54 5.25 3.84 8 3.84 2.43 0 4.9-1 7.38-3 5.5-4.46 10.72-9.26 16.24-13.67 3.7-2.95 8-4.36 12.17-4.36 6.47 0 12.6 3.38 15.56 9.6 1.25 2.62 1.56 5.67 2.3 8.5-.6 4.85-2.33 8.97-5.26 12.58-2.72 3.34-5.36 6.8-8.42 9.82-9.83 9.7-11.23 21.16-7.1 33.6 2.12 6.36 4.85 12.55 7.78 18.58 3.84 7.95 8.22 15.65 9.85 24.47 1.2 6.42-1.1 9.48-6.9 9.48-.52 0-1.1-.03-1.7-.07-6.86-.6-13.17-2.78-18.87-6.56-6.8-4.5-13.7-8.96-20.14-13.97-5.18-4.02-10.53-5.88-15.96-5.88-4.37-.02-8.8 1.2-13.25 3.42-6.25 3.15-11.97 7.44-17.66 11.6-5.03 3.63-10.1 6.62-16.57 6.68h-.17c-6.14 0-8.74-3-6.82-9 1.23-3.83 3.03-7.58 5.15-11 3.8-6.22 8.1-12.13 12.12-18.2 2.85-4.3 4.75-8.95 5.16-14.17.52-6.48-.98-12.3-5.62-17.02-1.77-1.8-3.53-3.73-5.62-5.13-13.1-8.87-12.7-29.97-4.52-39.83 5.66-6.8 12.94-9.23 21.28-9.23z" fill="#EE5BA0"/><g style="mix-blend-mode:multiply" transform="translate(0 .306)"><mask id="b" fill="#fff"><use xlink:href="#a"/></mask><path d="M139.63 114.86c6.82-4.4 11.5-10.23 12.55-18.8 1.5-12.38-9.32-29.88-24.73-30.23-2.45-.04-4.9-.68-7.3-1.23-6.3-1.43-10.6-5.4-13.6-10.98-2.4-4.48-3.3-9.3-3.24-14.32.1-7.1.48-14.2.34-21.3-.08-3.93-.6-7.95-1.6-11.74-1.58-5.93-5.3-7-10.34-3.77-.04.02-.1.06-.13.1-5.27 3.44-7.84 8.56-10.02 14.2-2.48 6.4-4.9 12.93-8.36 18.8-2.47 4.18-5.46 7.5-9.04 9.8-4.44 2.87-9.82 4.18-16.18 3.62-7.93-.7-15.92-.7-23.87-.82-6.66-.08-12.97 1.47-18.92 4.6-.5.28-1 .55-1.43.84-4.75 3.05-5.02 6.77-.63 11.4 6 6.36 13.64 10.35 21 14.84 5.56 3.4 11.05 7.02 16.14 11.1 9.96 8.02 14.87 18.16 11.93 31.28-.92 4.08-1.25 8.3-1.73 12.48-.48 4.5.27 8.8 2.33 13.08 2.1 1.93 3.97 4.26 6.37 5.74 5.72 3.53 12.5 3.07 17.8-.34 3.43-2.2 6.2-5.64 7.7-10 2.18-6.53 3.92-13.2 6.06-19.77.97-2.94 2.48-5.07 4.46-6.34 2.24-1.44 5.13-1.8 8.57-1.07 4.1.86 8.24 1.64 12.3 2.74 8.2 2.23 15.8.9 22.92-3.5.2-.14.4-.27.63-.4" fill="#80C8D1" style="mix-blend-mode:multiply" mask="url(#b)"/></g><path d="M186.44 38.9h29v36.2c-7.9 2.7-16.54 4.03-25.97 4.03-10.35 0-18.35-3-24-9-5.66-6-8.48-14.56-8.48-25.68 0-10.84 3.08-19.28 9.27-25.3 6.2-6.05 14.85-9.06 26-9.06 4.23 0 8.22.38 11.97 1.18 3.75.8 7.02 1.8 9.8 3.03l-5.74 14.25c-4.84-2.4-10.15-3.58-15.94-3.58-5.3 0-9.4 1.72-12.3 5.17-2.88 3.44-4.33 8.37-4.33 14.77 0 6.3 1.3 11.07 3.93 14.36 2.62 3.3 6.4 4.94 11.33 4.94 2.68 0 5.16-.26 7.43-.78V52.9h-12v-14zM264.28 78.2H224.4V11.06h39.88V25.6h-21.72V36.2h20.12v14.56h-20.12v12.68h21.72M311.22 78.2h-39.88V11.06h39.88V25.6H289.5V36.2h20.1v14.56h-20.1v12.68h21.72M375.65 78.2h-20.5L341.9 52.54l-5.37 3.22V78.2h-18.23V11.06h18.24v29.17c.93-1.8 2.78-4.67 5.57-8.6l14.1-20.57h19.85l-21.18 30.1 20.8 37.06zM211.63 137.03h-18.07l-18.63-35.93h-.32c.45 5.65.67 9.96.67 12.94v23h-12.2v-51h18l18.56 35.43h.2c-.32-5.14-.48-9.27-.48-12.4V86.04h12.28v51z" fill="#231F20"/><mask id="d" fill="#fff"><use xlink:href="#c"/></mask><path fill="#231F20" mask="url(#d)" d="M219.08 137.03h13.84v-51H219.1M260.85 107.17h22.02v27.48c-5.98 2.05-12.55 3.07-19.7 3.07-7.88 0-13.95-2.28-18.24-6.83-4.3-4.57-6.44-11.07-6.44-19.5 0-8.25 2.34-14.65 7.04-19.23 4.7-4.6 11.28-6.88 19.74-6.88 3.2 0 6.24.3 9.1.9 2.84.6 5.32 1.37 7.44 2.3l-4.36 10.82c-3.68-1.82-7.7-2.72-12.1-2.72-4.03 0-7.14 1.3-9.34 3.92s-3.3 6.35-3.3 11.2c0 4.78 1 8.42 3 10.92 1.98 2.5 4.84 3.75 8.6 3.75 2.03 0 3.92-.2 5.64-.6v-8h-9.1v-10.63zM333.4 137.03h-13.85v-20.8h-16v20.8h-13.86v-51h13.84v18.9h16v-18.9h13.86M363.35 137.03h-13.78V97.3h-12.45V86.02h38.65V97.3h-12.42"/></g></svg>