<svg viewBox="0 0 157 25" xmlns="http://www.w3.org/2000/svg" xmlns:xlink="http://www.w3.org/1999/xlink"><title>Group</title><defs><path id="a" d="M26.83 19.94H.53V.82h26.3z"/></defs><g fill="none" fill-rule="evenodd"><path d="M154.2 8.34c.27 0 .45-.06.45-.35 0-.34-.34-.3-.57-.3h-.53v.64h.65zm.84 1.36h-.57l-.53-1h-.4v1h-.5V7.32h1.15c.62 0 .9.17.9.73 0 .43-.22.6-.63.64l.57 1zm.53-1.2c0-.98-.68-1.67-1.62-1.67-.95 0-1.6.7-1.6 1.67 0 .98.65 1.67 1.6 1.67.94 0 1.62-.7 1.62-1.67zm-3.8 0c0-1.2.97-2.2 2.18-2.2 1.2 0 2.2 1 2.2 2.2 0 1.2-1 2.2-2.2 2.2-1.2 0-2.2-.98-2.2-2.2zM14.02 4.14H8.96v16.18h-3.9V4.14H0V.84h14.02v3.3M19.2 7.75C20.38 6.77 21.83 6 23.4 6c1.5 0 3.67.92 3.67 4.38v9.94h-3.7v-8.44c0-1.13.07-2.9-1.54-2.9-1.07 0-1.92.77-2.63 1.52v9.82h-3.7V.84h3.7v6.9M37.1 13.3c0-1.75-.34-4.58-2.35-4.58-2 0-2.35 2.83-2.35 4.6 0 1.74.35 4.57 2.35 4.57s2.36-2.84 2.36-4.6zm-8.5 0c0-3.72 2.05-7.3 6.15-7.3 4.1 0 6.16 3.58 6.16 7.3 0 3.7-2.06 7.32-6.15 7.32-4.08 0-6.16-3.6-6.16-7.3z" fill="#FFFFFE"/><g transform="translate(42 5)"><mask id="b" fill="#fff"><use xlink:href="#a"/></mask><path d="M8.4 13.87c-1.17.97-2.63 1.75-4.18 1.75-1.52 0-3.68-.93-3.68-4.38V1.3h3.7v8.43c0 1.13-.07 2.9 1.53 2.9 1.08 0 1.93-.77 2.63-1.52V1.3h3.7V15.3H8.4v-1.46M19.55 8.36c1.55 0 2-1.28 2-2.6 0-1.28-.6-2.36-2-2.36-1.56 0-2.03 1.3-2.03 2.63 0 1.27.6 2.33 2.03 2.33zM17 15.34c-.36.23-.6.43-.6.88.02 1.3 2.65 1.38 3.52 1.38.63 0 3.88-.08 3.88-1.2 0-.73-.5-.66-2.7-.78l-4.1-.28zm1.17-4.63c-.43 0-1.05.24-1.05.9 0 1.8 9.7-1.37 9.7 4.12 0 2.08-1.4 4.28-6.95 4.28-4.83 0-6.48-1.7-6.48-3.53 0-1.08.66-1.63 1.5-2.13-.6-.45-1.1-.98-1.1-1.78 0-1.37.76-2.1 1.84-2.8-1.03-1-1.75-2.25-1.75-3.86 0-3.1 2.62-4.9 5.65-4.9 1.22 0 2.4.35 3.45.97.75-.7 1.43-1.15 2.53-1.15.35 0 .73.03 1.08.1v2.6c-.37-.15-.77-.3-1.17-.3-.4 0-.65.13-1 .3.4.76.73 1.58.75 2.38 0 3.1-2.6 4.9-5.63 4.9l-1.38-.1z" fill="#FFFFFE" mask="url(#b)"/></g><path d="M73.92 7.75C75.1 6.77 76.54 6 78.1 6c1.53 0 3.68.92 3.68 4.38v9.94h-3.7v-8.44c0-1.13.07-2.9-1.54-2.9-1.07 0-1.92.77-2.63 1.52l.02 9.82h-3.7V.84h3.7v6.9M88.5 6.3h2.9v3.08h-2.9v7.13c0 .7.2 1.4 1.42 1.4.62 0 1.02-.26 1.47-.54v2.83c-.78.22-1.6.42-2.4.42-2.3 0-4.2-1.3-4.2-4.36V9.38H83.1v-3.1h1.73V2.8h3.7V6.3M106.82 20.32h-2L101.5 4.4h-.06L97.98 20.3h-2L91.87.84h1.97l3.2 15.72h.05L100.6.84h1.94l3.32 15.72h.06L109.35.84h1.92l-4.45 19.48M119.53 13.4c0-2.35-.57-5.65-3.58-5.65-3 0-3.58 3.3-3.58 5.66 0 2.36.58 5.67 3.58 5.67s3.58-3.3 3.58-5.66zm-9.1 0c0-5.18 2.45-7.3 5.52-7.3 3.08 0 5.54 2.12 5.54 7.3 0 5.2-2.47 7.32-5.55 7.32-3.07 0-5.53-2.13-5.53-7.3zM124.97 9.48h.05c.78-1.66 1.78-3.2 3.83-3.2h.75v1.8c-2.55-.36-3.88 2.4-4.63 4.4v7.84h-1.95V6.5h1.95v2.98M133.13 12.9l5.13-6.4h2.18l-3.8 4.73 4.38 9.1h-2.1l-3.53-7.52-2.27 2.8v4.72h-1.95V.84h1.95V12.9M149.48 9.58c-.77-1.16-1.7-1.83-3.15-1.83-1.28 0-2.48.65-2.48 2.05 0 3.38 7.3 1.9 7.3 6.56 0 2.7-1.94 4.36-4.55 4.36-2.23 0-4.03-.98-5.16-2.9l1.56-.98c.75 1.43 1.95 2.23 3.6 2.23 1.43 0 2.7-.78 2.7-2.36 0-3.47-7.28-1.82-7.28-6.77 0-2.38 1.95-3.83 4.23-3.83 1.93 0 3.53.8 4.6 2.4l-1.37 1.08" fill="#FFFFFE"/></g></svg>