<svg xmlns="http://www.w3.org/2000/svg" width="33" height="32"><g fill="none" fill-rule="evenodd"><path fill="#DFDFDF" fill-rule="nonzero" d="M16.159 0c-8.823 0-16 7.177-16 16s7.177 16 16 16 16-7.177 16-16-7.177-16-16-16z"/><path fill="#FFF" d="M16.159 7.36c2.88 0 5.257 2.469 5.257 5.486S19.04 18.33 16.16 18.33s-5.257-2.468-5.257-5.485c0-3.017 2.377-5.486 5.257-5.486zm.001 23.784c-4.078 0-7.955-1.56-10.875-4.43 2.97-3.978 6.847-6.143 10.875-6.143s7.904 2.165 10.875 6.143c-2.92 2.87-6.797 4.43-10.875 4.43z"/></g></svg>