<svg width="376" height="156" viewBox="120 -5 276 156" xmlns="http://www.w3.org/2000/svg" xmlns:xlink="http://www.w3.org/1999/xlink"><title>Geek Night Chennai</title><defs><path id="c" d="M0 156.3h376.02V1H0z"/></defs><g transform="translate(0 -1)" fill="none" fill-rule="evenodd"><path d="M186.44 38.9h29v36.2c-7.9 2.7-16.54 4.03-25.97 4.03-10.35 0-18.35-3-24-9-5.66-6-8.48-14.56-8.48-25.68 0-10.84 3.08-19.28 9.27-25.3 6.2-6.05 14.85-9.06 26-9.06 4.23 0 8.22.38 11.97 1.18 3.75.8 7.02 1.8 9.8 3.03l-5.74 14.25c-4.84-2.4-10.15-3.58-15.94-3.58-5.3 0-9.4 1.72-12.3 5.17-2.88 3.44-4.33 8.37-4.33 14.77 0 6.3 1.3 11.07 3.93 14.36 2.62 3.3 6.4 4.94 11.33 4.94 2.68 0 5.16-.26 7.43-.78V52.9h-12v-14zM264.28 78.2H224.4V11.06h39.88V25.6h-21.72V36.2h20.12v14.56h-20.12v12.68h21.72M311.22 78.2h-39.88V11.06h39.88V25.6H289.5V36.2h20.1v14.56h-20.1v12.68h21.72M375.65 78.2h-20.5L341.9 52.54l-5.37 3.22V78.2h-18.23V11.06h18.24v29.17c.93-1.8 2.78-4.67 5.57-8.6l14.1-20.57h19.85l-21.18 30.1 20.8 37.06zM211.63" fill="#F2617A"/><mask id="d" fill="#fff"><use xlink:href="#c"/></mask><path fill="#634F7D" mask="url(#d)" d="M210.44 137.03h-18.07l-18.63-35.93h-.32c.45 5.65.67 9.96.67 12.94v23h-12.2v-51h18l18.56 35.43h.2c-.32-5.14-.48-9.27-.48-12.4V86.04h12.28v51z M219.08 137.03h13.84v-51H219.1M260.85 107.17h22.02v27.48c-5.98 2.05-12.55 3.07-19.7 3.07-7.88 0-13.95-2.28-18.24-6.83-4.3-4.57-6.44-11.07-6.44-19.5 0-8.25 2.34-14.65 7.04-19.23 4.7-4.6 11.28-6.88 19.74-6.88 3.2 0 6.24.3 9.1.9 2.84.6 5.32 1.37 7.44 2.3l-4.36 10.82c-3.68-1.82-7.7-2.72-12.1-2.72-4.03 0-7.14 1.3-9.34 3.92s-3.3 6.35-3.3 11.2c0 4.78 1 8.42 3 10.92 1.98 2.5 4.84 3.75 8.6 3.75 2.03 0 3.92-.2 5.64-.6v-8h-9.1v-10.63zM333.4 137.03h-13.85v-20.8h-16v20.8h-13.86v-51h13.84v18.9h16v-18.9h13.86M363.35 137.03h-13.78V97.3h-12.45V86.02h38.65V97.3h-12.42"/></g></svg>