<?xml version="1.0" encoding="utf-8"?>
<!-- Generator: Adobe Illustrator 25.1.0, SVG Export Plug-In . SVG Version: 6.00 Build 0)  -->
<svg version="1.1" id="Layer_1" xmlns="http://www.w3.org/2000/svg" xmlns:xlink="http://www.w3.org/1999/xlink" x="0px" y="0px"
	 viewBox="0 0 1224 792" style="enable-background:new 0 0 1224 792;" xml:space="preserve">
<style type="text/css">
	.st0{fill:#F2617A;}
	.st1{fill:#003D4F;}
</style>
<g>
	<polygon class="st0" points="427.06,356.03 399.84,409.44 412.48,409.44 439.7,356.03 	"/>
	<g>
		<path class="st1" d="M583.65,377.42l-2.17,4.27h-0.13c-1.07-1.85-2.4-3.17-3.99-3.96c-1.59-0.78-3.44-1.18-5.54-1.18
			c-2.23,0-4.2,0.43-5.92,1.3c-1.72,0.87-3.15,2.04-4.31,3.5c-1.15,1.47-2.03,3.16-2.63,5.08c-0.6,1.92-0.9,3.91-0.9,5.98
			c0,2.19,0.26,4.26,0.77,6.23c0.52,1.96,1.33,3.68,2.45,5.14c1.11,1.47,2.54,2.62,4.27,3.47c1.73,0.85,3.8,1.27,6.2,1.27
			c1.94,0,3.79-0.4,5.54-1.21c1.76-0.81,3.11-2.05,4.06-3.75h0.12v4.21c0,4.97-2.35,7.87-6.98,7.87c-4.56,0-7.14-2.03-8.46-3.64
			l-3.21,6.29c0,0,3.59,3.24,10.41,3.24c11.31,0,16.6-5.46,16.6-14.12v-29.98H583.65z M581.01,396.34
			c-0.31,1.05-0.77,1.99-1.39,2.82c-0.62,0.83-1.4,1.49-2.35,1.98c-0.95,0.5-2.04,0.74-3.28,0.74c-1.36,0-2.5-0.29-3.41-0.87
			c-0.91-0.58-1.64-1.32-2.2-2.23c-0.56-0.91-0.95-1.93-1.18-3.07c-0.23-1.14-0.34-2.28-0.34-3.44c0-1.2,0.13-2.34,0.4-3.44
			c0.27-1.09,0.7-2.06,1.3-2.91c0.6-0.85,1.34-1.52,2.23-2.01c0.89-0.5,1.95-0.74,3.19-0.74c1.44,0,2.64,0.27,3.59,0.81
			c0.95,0.54,1.71,1.26,2.29,2.17c0.58,0.91,0.99,1.95,1.24,3.13c0.25,1.18,0.37,2.43,0.37,3.75
			C581.47,394.18,581.32,395.29,581.01,396.34z"/>
		<path class="st1" d="M466.39,365.21v16.66h0.19c1.11-1.86,2.54-3.21,4.27-4.06c1.73-0.85,3.43-1.27,5.08-1.27
			c2.35,0,4.28,0.32,5.79,0.96c1.51,0.64,2.69,1.53,3.56,2.66c0.87,1.13,1.47,2.52,1.83,4.15c0.35,1.63,0.53,3.44,0.53,5.42v19.7
			h-8.8v-18.09c0-2.64-0.41-4.61-1.24-5.92c-0.83-1.3-2.29-1.95-4.4-1.95c-2.4,0-4.13,0.71-5.2,2.14c-1.07,1.43-1.61,3.77-1.61,7.03
			v16.79h-8.8v-44.23H466.39z"/>
		<path class="st1" d="M491.31,386.49c0.78-2.08,1.9-3.86,3.34-5.33c1.44-1.47,3.18-2.6,5.2-3.41c2.02-0.8,4.29-1.21,6.81-1.21
			c2.52,0,4.8,0.4,6.85,1.21c2.04,0.81,3.79,1.94,5.23,3.41c1.44,1.47,2.56,3.24,3.34,5.33c0.78,2.09,1.18,4.41,1.18,6.97
			c0,2.56-0.39,4.87-1.18,6.94c-0.79,2.06-1.9,3.83-3.34,5.3c-1.45,1.47-3.19,2.59-5.23,3.37c-2.04,0.78-4.32,1.18-6.85,1.18
			c-2.52,0-4.79-0.39-6.81-1.18c-2.02-0.78-3.76-1.91-5.2-3.37c-1.45-1.46-2.56-3.23-3.34-5.3c-0.79-2.06-1.18-4.38-1.18-6.94
			C490.13,390.9,490.52,388.58,491.31,386.49z M499.3,397.21c0.25,1.22,0.67,2.31,1.27,3.28c0.6,0.97,1.39,1.74,2.38,2.32
			c0.99,0.58,2.23,0.87,3.72,0.87c1.49,0,2.74-0.29,3.75-0.87c1.01-0.58,1.82-1.35,2.42-2.32c0.6-0.97,1.02-2.07,1.27-3.28
			c0.25-1.22,0.37-2.47,0.37-3.75c0-1.28-0.12-2.54-0.37-3.78c-0.25-1.24-0.67-2.33-1.27-3.28c-0.6-0.95-1.4-1.72-2.42-2.32
			c-1.01-0.6-2.26-0.9-3.75-0.9c-1.48,0-2.72,0.3-3.72,0.9c-0.99,0.6-1.79,1.37-2.38,2.32c-0.6,0.95-1.02,2.04-1.27,3.28
			c-0.25,1.24-0.37,2.5-0.37,3.78C498.93,394.74,499.05,395.99,499.3,397.21z"/>
		<path class="st1" d="M547.27,409.44v-4.46h-0.19c-1.11,1.86-2.56,3.2-4.34,4.03c-1.78,0.82-3.59,1.24-5.45,1.24
			c-2.35,0-4.28-0.31-5.79-0.93c-1.51-0.62-2.69-1.5-3.56-2.63c-0.87-1.13-1.48-2.52-1.83-4.15c-0.35-1.63-0.53-3.44-0.53-5.42
			v-19.7h8.8v18.09c0,2.64,0.41,4.61,1.24,5.92c0.82,1.3,2.29,1.95,4.4,1.95c2.39,0,4.13-0.71,5.2-2.14
			c1.07-1.42,1.61-3.77,1.61-7.03v-16.79h8.8v32.02H547.27z"/>
		<path class="st1" d="M601.92,365.21v16.66h0.19c1.11-1.86,2.54-3.21,4.27-4.06c1.73-0.85,3.43-1.27,5.08-1.27
			c2.35,0,4.28,0.32,5.79,0.96c1.51,0.64,2.69,1.53,3.56,2.66c0.87,1.13,1.47,2.52,1.83,4.15c0.35,1.63,0.53,3.44,0.53,5.42v19.7
			h-8.8v-18.09c0-2.64-0.41-4.61-1.24-5.92c-0.83-1.3-2.29-1.95-4.4-1.95c-2.4,0-4.13,0.71-5.2,2.14c-1.07,1.43-1.61,3.77-1.61,7.03
			v16.79h-8.8v-44.23H601.92z"/>
		<path class="st1" d="M690.31,386.49c0.78-2.08,1.9-3.86,3.34-5.33c1.44-1.47,3.18-2.6,5.2-3.41c2.02-0.8,4.29-1.21,6.81-1.21
			c2.52,0,4.8,0.4,6.85,1.21c2.04,0.81,3.79,1.94,5.23,3.41c1.45,1.47,2.56,3.24,3.34,5.33c0.78,2.09,1.18,4.41,1.18,6.97
			c0,2.56-0.39,4.87-1.18,6.94c-0.78,2.06-1.9,3.83-3.34,5.3c-1.44,1.47-3.19,2.59-5.23,3.37c-2.04,0.78-4.33,1.18-6.85,1.18
			c-2.52,0-4.79-0.39-6.81-1.18c-2.02-0.78-3.76-1.91-5.2-3.37c-1.45-1.46-2.56-3.23-3.34-5.3c-0.78-2.06-1.18-4.38-1.18-6.94
			C689.13,390.9,689.52,388.58,690.31,386.49z M698.3,397.21c0.25,1.22,0.67,2.31,1.27,3.28c0.6,0.97,1.39,1.74,2.38,2.32
			c0.99,0.58,2.23,0.87,3.72,0.87c1.49,0,2.73-0.29,3.75-0.87c1.01-0.58,1.82-1.35,2.41-2.32c0.6-0.97,1.02-2.07,1.27-3.28
			c0.25-1.22,0.37-2.47,0.37-3.75c0-1.28-0.13-2.54-0.37-3.78c-0.25-1.24-0.67-2.33-1.27-3.28c-0.6-0.95-1.4-1.72-2.41-2.32
			c-1.01-0.6-2.26-0.9-3.75-0.9c-1.49,0-2.72,0.3-3.72,0.9c-0.99,0.6-1.78,1.37-2.38,2.32c-0.6,0.95-1.02,2.04-1.27,3.28
			c-0.25,1.24-0.37,2.5-0.37,3.78C697.93,394.74,698.05,395.99,698.3,397.21z"/>
		<path class="st1" d="M758.57,365.21v23.72l11.09-11.52h10.41l-12.08,11.77l13.44,20.26h-10.65l-8.8-14.31l-3.41,3.28v11.03h-8.8
			v-44.23H758.57z"/>
		<path class="st1" d="M787.93,401.48c0.39,0.68,0.9,1.24,1.52,1.67c0.62,0.43,1.33,0.75,2.14,0.96c0.81,0.21,1.64,0.31,2.51,0.31
			c0.62,0,1.27-0.07,1.95-0.22c0.68-0.14,1.3-0.37,1.86-0.68c0.56-0.31,1.02-0.72,1.39-1.24c0.37-0.51,0.56-1.16,0.56-1.95
			c0-1.32-0.88-2.31-2.63-2.97c-1.76-0.66-4.2-1.32-7.34-1.98c-1.28-0.29-2.53-0.63-3.75-1.02c-1.22-0.39-2.3-0.91-3.25-1.55
			c-0.95-0.64-1.71-1.44-2.29-2.41c-0.58-0.97-0.87-2.16-0.87-3.56c0-2.07,0.4-3.76,1.21-5.08c0.81-1.32,1.87-2.36,3.19-3.13
			c1.32-0.76,2.81-1.3,4.46-1.61c1.65-0.31,3.34-0.46,5.08-0.46c1.74,0,3.42,0.17,5.05,0.5c1.63,0.33,3.09,0.89,4.37,1.67
			c1.28,0.78,2.34,1.83,3.19,3.13c0.84,1.3,1.35,2.94,1.52,4.92h-8.36c-0.12-1.69-0.76-2.84-1.92-3.44c-1.16-0.6-2.52-0.9-4.09-0.9
			c-0.49,0-1.03,0.03-1.61,0.09c-0.58,0.06-1.1,0.2-1.58,0.4c-0.47,0.21-0.88,0.51-1.21,0.9c-0.33,0.39-0.49,0.92-0.49,1.58
			c0,0.79,0.29,1.43,0.87,1.92c0.58,0.5,1.33,0.9,2.26,1.21c0.93,0.31,1.99,0.59,3.19,0.84s2.42,0.52,3.65,0.81
			c1.28,0.29,2.53,0.64,3.75,1.05c1.22,0.41,2.3,0.96,3.25,1.64c0.95,0.68,1.71,1.53,2.29,2.54c0.58,1.01,0.87,2.26,0.87,3.75
			c0,2.11-0.42,3.87-1.27,5.3c-0.85,1.43-1.95,2.57-3.31,3.44c-1.36,0.87-2.92,1.48-4.68,1.83c-1.76,0.35-3.54,0.53-5.36,0.53
			c-1.86,0-3.68-0.18-5.45-0.56c-1.77-0.37-3.35-0.99-4.74-1.86s-2.52-2.01-3.41-3.44c-0.89-1.42-1.37-3.21-1.45-5.36h8.36
			C787.34,399.99,787.53,400.8,787.93,401.48z"/>
		<path class="st1" d="M641.78,402.88c-1.49,0-2.48-0.25-2.97-0.74c-0.49-0.5-0.74-1.49-0.74-2.97V383.3h4.91l3-5.89h-7.9v-9.6h-8.8
			v9.6h-4.41l-2.99,5.87l7.4,0.01v18.89c0,1.61,0.27,2.91,0.8,3.9c0.54,0.99,1.27,1.75,2.2,2.29c0.93,0.54,2,0.9,3.22,1.08
			c1.22,0.19,2.51,0.28,3.87,0.28c0.87,0,1.75-0.02,2.66-0.06c0.91-0.04,1.74-0.12,2.48-0.25v-6.82c-0.41,0.08-0.85,0.15-1.3,0.19
			C642.75,402.86,642.27,402.88,641.78,402.88z"/>
		<path class="st1" d="M452.11,402.88c-1.49,0-2.48-0.25-2.97-0.74c-0.49-0.5-0.74-1.49-0.74-2.97V383.3h4.53l3-5.89h-7.52v-9.6
			h-8.8v9.6h-4.41l-2.99,5.87l7.4,0.01v18.89c0,1.61,0.27,2.91,0.8,3.9c0.54,0.99,1.27,1.75,2.2,2.29c0.93,0.54,2,0.9,3.22,1.08
			c1.22,0.19,2.51,0.28,3.87,0.28c0.87,0,1.75-0.02,2.66-0.06c0.91-0.04,1.74-0.12,2.48-0.25v-6.82c-0.41,0.08-0.85,0.15-1.3,0.19
			C453.08,402.86,452.6,402.88,452.11,402.88z"/>
		<path class="st1" d="M742.92,376.55c-7.4,0-10.22,6.81-10.22,6.81v0h-0.12v-5.95h-8.36v32.02h8.8v-13.43l0,0
			c0-7.81,1.52-11.28,8.16-11.28c1.37,0,2.5,0.31,3.44,0.82l3.77-7.4C746.95,377.22,745.14,376.55,742.92,376.55z"/>
		<polygon class="st1" points="681.74,377.42 675.86,399.1 675.73,399.1 670.28,377.42 661.73,377.42 656.41,399.16 656.28,399.16 
			650.4,377.42 644.67,388.66 651.27,409.44 660.37,409.44 665.82,387.95 665.95,387.95 671.64,409.44 680.69,409.44 690.78,377.42 
					"/>
	</g>
</g>
</svg>
